<svg width="45" height="45" viewBox="0 0 206 206" fill="none" xmlns="http://www.w3.org/2000/svg">
<path d="M103 19.2842C82.6187 19.285 62.9026 26.5381 47.3797 39.7455C31.8568 52.953 21.5399 71.253 18.2751 91.3712C15.0102 111.489 19.0105 132.113 29.5601 149.551C40.1098 166.99 56.5203 180.106 75.8554 186.552C80.1471 187.303 81.7564 184.728 81.7564 182.475C81.7564 180.436 81.6491 173.677 81.6491 166.488C60.0833 170.458 54.5042 161.231 52.7875 156.403C50.8827 151.707 47.863 147.546 43.9896 144.279C40.9854 142.67 36.6938 138.7 43.8822 138.593C46.6271 138.891 49.2596 139.846 51.5569 141.377C53.8542 142.909 55.7485 144.971 57.0792 147.39C58.2531 149.499 59.8317 151.356 61.7244 152.854C63.6171 154.351 65.7868 155.461 68.109 156.119C70.4313 156.777 72.8606 156.97 75.2576 156.687C77.6547 156.404 79.9724 155.652 82.078 154.472C82.4495 150.108 84.3943 146.028 87.55 142.992C68.4521 140.846 48.4958 133.442 48.4958 100.612C48.3752 92.0809 51.5231 83.8275 57.2938 77.5438C54.6697 70.1297 54.9767 61.9933 58.1521 54.798C58.1521 54.798 65.3404 52.5448 81.7563 63.5959C95.8011 59.7332 110.628 59.7332 124.673 63.5959C141.088 52.4376 148.277 54.798 148.277 54.798C151.453 61.9932 151.76 70.1298 149.135 77.5438C154.924 83.8167 158.074 92.0774 157.933 100.612C157.933 133.55 137.87 140.846 118.772 142.992C120.82 145.068 122.398 147.561 123.398 150.301C124.397 153.04 124.796 155.963 124.566 158.871C124.566 170.351 124.458 179.578 124.458 182.475C124.458 184.728 126.068 187.41 130.359 186.552C149.66 180.053 166.024 166.907 176.528 149.459C187.033 132.012 190.995 111.399 187.708 91.3004C184.42 71.2017 174.097 52.9255 158.581 39.7341C143.065 26.5427 123.366 19.2948 103 19.2842Z" fill="#010046"/>
</svg>
