<svg width="40" height="40" viewBox="0 0 40 40" fill="none" xmlns="http://www.w3.org/2000/svg">
<g clip-path="url(#clip0_95_4)">
<path d="M28.1208 13.8562C27.9473 13.4068 27.6815 12.9986 27.3406 12.6581C26.9998 12.3176 26.5913 12.0522 26.1417 11.8792C25.5225 11.6498 24.8685 11.5286 24.2083 11.5208C23.1104 11.4708 22.7812 11.4583 20 11.4583C17.2187 11.4583 16.8896 11.4708 15.7917 11.5208C15.1307 11.5284 14.4761 11.6496 13.8562 11.8792C13.4068 12.0527 12.9986 12.3185 12.6581 12.6594C12.3176 13.0002 12.0522 13.4087 11.8792 13.8583C11.6498 14.4775 11.5286 15.1314 11.5208 15.7917C11.4708 16.8896 11.4583 17.2187 11.4583 20C11.4583 22.7812 11.4708 23.1104 11.5208 24.2083C11.5284 24.8692 11.6496 25.5239 11.8792 26.1437C12.0527 26.5932 12.3185 27.0014 12.6594 27.3419C13.0002 27.6824 13.4087 27.9478 13.8583 28.1208C14.4775 28.3501 15.1314 28.4714 15.7917 28.4792C16.8896 28.5292 17.2187 28.5417 20 28.5417C22.7812 28.5417 23.1104 28.5292 24.2083 28.4792C24.8692 28.4716 25.5239 28.3504 26.1437 28.1208C26.5932 27.9473 27.0014 27.6815 27.3419 27.3406C27.6824 26.9998 27.9478 26.5913 28.1208 26.1417C28.3501 25.5225 28.4714 24.8685 28.4792 24.2083C28.5292 23.1104 28.5417 22.7812 28.5417 20C28.5417 17.2187 28.5292 16.8896 28.4792 15.7917C28.4716 15.1307 28.3504 14.4761 28.1208 13.8562ZM20 25.35C18.9419 25.35 17.9075 25.0362 17.0277 24.4484C16.1479 23.8605 15.4622 23.0249 15.0572 22.0474C14.6523 21.0698 14.5464 19.9941 14.7528 18.9563C14.9592 17.9185 15.4688 16.9652 16.217 16.217C16.9652 15.4688 17.9185 14.9592 18.9563 14.7528C19.9941 14.5464 21.0698 14.6523 22.0474 15.0572C23.0249 15.4622 23.8605 16.1479 24.4484 17.0277C25.0362 17.9075 25.35 18.9419 25.35 20C25.35 21.4189 24.7863 22.7797 23.783 23.783C22.7797 24.7863 21.4189 25.35 20 25.35ZM25.5604 15.6896C25.3132 15.6896 25.0715 15.6163 24.8659 15.4789C24.6604 15.3416 24.5002 15.1463 24.4056 14.9179C24.311 14.6895 24.2862 14.4382 24.3344 14.1957C24.3827 13.9532 24.5017 13.7305 24.6765 13.5557C24.8513 13.3809 25.0741 13.2618 25.3165 13.2136C25.559 13.1654 25.8104 13.1901 26.0388 13.2847C26.2672 13.3793 26.4624 13.5396 26.5997 13.7451C26.7371 13.9507 26.8104 14.1924 26.8104 14.4396C26.8104 14.7711 26.6787 15.089 26.4443 15.3235C26.2099 15.5579 25.8919 15.6896 25.5604 15.6896Z" fill="#010046"/>
<path d="M20 23.4729C21.918 23.4729 23.4729 21.918 23.4729 20C23.4729 18.082 21.918 16.5271 20 16.5271C18.082 16.5271 16.5271 18.082 16.5271 20C16.5271 21.918 18.082 23.4729 20 23.4729Z" fill="#010046"/>
<path d="M20 0C16.0444 0 12.1776 1.17298 8.8886 3.37061C5.59962 5.56824 3.03617 8.69181 1.52242 12.3463C0.00866565 16.0009 -0.387401 20.0222 0.384303 23.9018C1.15601 27.7814 3.06082 31.3451 5.85787 34.1421C8.65492 36.9392 12.2186 38.844 16.0982 39.6157C19.9778 40.3874 23.9992 39.9913 27.6537 38.4776C31.3082 36.9638 34.4318 34.4004 36.6294 31.1114C38.827 27.8224 40 23.9556 40 20C40 14.6957 37.8929 9.60859 34.1421 5.85786C30.3914 2.10714 25.3043 0 20 0ZM30.3542 24.2958C30.3363 25.1596 30.1722 26.014 29.8688 26.8229C29.6012 27.5147 29.1921 28.143 28.6676 28.6676C28.1431 29.1921 27.5148 29.6012 26.8229 29.8687C26.014 30.1722 25.1596 30.3363 24.2958 30.3542C23.1833 30.4042 22.8292 30.4167 20 30.4167C17.1708 30.4167 16.8167 30.4042 15.7042 30.3542C14.8404 30.3363 13.986 30.1722 13.1771 29.8687C12.4853 29.6012 11.857 29.1921 11.3325 28.6676C10.8079 28.143 10.3988 27.5147 10.1313 26.8229C9.82784 26.014 9.66372 25.1596 9.64584 24.2958C9.59584 23.1833 9.58334 22.8292 9.58334 20C9.58334 17.1708 9.59584 16.8167 9.64584 15.7042C9.66372 14.8404 9.82784 13.986 10.1313 13.1771C10.3988 12.4853 10.8079 11.857 11.3325 11.3324C11.857 10.8079 12.4853 10.3988 13.1771 10.1312C13.986 9.82784 14.8404 9.66371 15.7042 9.64583C16.8167 9.59583 17.1708 9.58333 20 9.58333C22.8292 9.58333 23.1833 9.59583 24.2958 9.64583C25.1596 9.66371 26.014 9.82784 26.8229 10.1312C27.5148 10.3988 28.1431 10.8079 28.6676 11.3324C29.1921 11.857 29.6012 12.4853 29.8688 13.1771C30.1722 13.986 30.3363 14.8404 30.3542 15.7042C30.4042 16.8167 30.4167 17.1708 30.4167 20C30.4167 22.8292 30.4042 23.1833 30.3542 24.2958Z" fill="#010046"/>
</g>
<defs>
<clipPath id="clip0_95_4">
<rect width="40" height="40" fill="white"/>
</clipPath>
</defs>
</svg>
