<svg width="40" height="40" viewBox="0 0 40 40" fill="none" xmlns="http://www.w3.org/2000/svg">
<path d="M22.14 17.6681H22.168V17.6241L22.14 17.6681ZM22.14 17.6681H22.168V17.6241L22.14 17.6681ZM22.14 17.6681H22.168V17.6241L22.14 17.6681ZM22.14 17.6681H22.168V17.6241L22.14 17.6681ZM22.14 17.6681H22.168V17.6241L22.14 17.6681ZM22.14 17.6681H22.168V17.6241L22.14 17.6681ZM22.14 17.6681H22.168V17.6241L22.14 17.6681ZM22.14 17.6681H22.168V17.6241L22.14 17.6681ZM22.14 17.6681H22.168V17.6241L22.14 17.6681ZM22.14 17.6681H22.168V17.6241L22.14 17.6681ZM22.14 17.6681H22.168V17.6241L22.14 17.6681ZM22.14 17.6681H22.168V17.6241L22.14 17.6681ZM22.14 17.6681H22.168V17.6241L22.14 17.6681ZM22.14 17.6681H22.168V17.6241L22.14 17.6681ZM22.14 17.6681H22.168V17.6241L22.14 17.6681ZM22.14 17.6681H22.168V17.6241L22.14 17.6681ZM20.32 1.50806C16.7069 1.50806 13.175 2.57946 10.1709 4.58677C7.1667 6.59408 4.82524 9.44715 3.44258 12.7852C2.05992 16.1232 1.69815 19.7963 2.40302 23.34C3.1079 26.8836 4.84776 30.1387 7.40258 32.6935C9.95741 35.2483 13.2125 36.9882 16.7561 37.693C20.2997 38.3979 23.9728 38.0362 27.3109 36.6535C30.6489 35.2708 33.502 32.9294 35.5093 29.9252C37.5166 26.9211 38.588 23.3891 38.588 19.7761C38.5827 14.9327 36.6564 10.2892 33.2316 6.86448C29.8068 3.43971 25.1634 1.51335 20.32 1.50806ZM15.752 28.0001C15.751 28.081 15.718 28.1584 15.6604 28.2153C15.6027 28.2722 15.525 28.3041 15.444 28.3041H11.924C11.8434 28.3041 11.7661 28.272 11.709 28.215C11.652 28.158 11.62 28.0807 11.62 28.0001V16.1721C11.6195 16.1318 11.627 16.0918 11.642 16.0545C11.657 16.0171 11.6793 15.9832 11.7076 15.9545C11.7359 15.9259 11.7696 15.9031 11.8067 15.8876C11.8439 15.872 11.8837 15.8641 11.924 15.8641H15.444C15.4845 15.8641 15.5245 15.872 15.5619 15.8875C15.5992 15.903 15.6332 15.9257 15.6618 15.9543C15.6904 15.9829 15.7131 16.0168 15.7286 16.0542C15.744 16.0916 15.752 16.1316 15.752 16.1721V28.0001ZM13.56 14.2841C13.1225 14.2841 12.6948 14.1543 12.3311 13.9113C11.9673 13.6682 11.6838 13.3227 11.5164 12.9186C11.349 12.5144 11.3052 12.0696 11.3905 11.6405C11.4759 11.2114 11.6865 10.8173 11.9959 10.5079C12.3052 10.1986 12.6994 9.98791 13.1285 9.90256C13.5576 9.81721 14.0023 9.86101 14.4065 10.0284C14.8107 10.1959 15.1562 10.4794 15.3992 10.8431C15.6423 11.2069 15.772 11.6346 15.772 12.0721C15.7725 12.3627 15.7157 12.6506 15.6047 12.9192C15.4937 13.1878 15.3308 13.4318 15.1253 13.6374C14.9198 13.8429 14.6757 14.0058 14.4071 14.1168C14.1385 14.2277 13.8506 14.2846 13.56 14.2841ZM30.648 28.0001C30.647 28.081 30.614 28.1584 30.5564 28.2153C30.4987 28.2722 30.421 28.3041 30.34 28.3041H26.82C26.7801 28.3041 26.7406 28.2962 26.7037 28.2809C26.6668 28.2656 26.6333 28.2432 26.605 28.215C26.5768 28.1868 26.5544 28.1533 26.5392 28.1164C26.5239 28.0795 26.516 28.04 26.516 28.0001V21.6441C26.516 19.9721 25.92 18.8441 24.424 18.8441C23.9578 18.8467 23.5039 18.9934 23.1244 19.264C22.7448 19.5347 22.4583 19.9162 22.304 20.3561C22.1986 20.6812 22.1525 21.0226 22.168 21.3641V28.0001C22.168 28.0817 22.1356 28.1601 22.0778 28.2178C22.02 28.2756 21.9417 28.3081 21.86 28.3081H18.34C18.2997 28.3081 18.2599 28.3001 18.2227 28.2845C18.1856 28.269 18.1519 28.2463 18.1236 28.2176C18.0953 28.189 18.073 28.155 18.058 28.1176C18.043 28.0803 18.0355 28.0403 18.036 28.0001C18.036 26.3121 18.08 18.1161 18.036 16.1881C18.0355 16.1478 18.043 16.1078 18.058 16.0705C18.073 16.0331 18.0953 15.9992 18.1236 15.9705C18.1519 15.9419 18.1856 15.9191 18.2227 15.9036C18.2599 15.888 18.2997 15.8801 18.34 15.8801H21.852C21.8926 15.8795 21.9329 15.8871 21.9705 15.9024C22.0081 15.9177 22.0423 15.9404 22.071 15.9691C22.0997 15.9978 22.1224 16.0319 22.1377 16.0696C22.153 16.1072 22.1605 16.1475 22.16 16.1881V17.6401C22.5342 16.9906 23.0791 16.4559 23.7355 16.0942C24.392 15.7324 25.1351 15.5574 25.884 15.5881C28.6 15.5881 30.64 17.3641 30.64 21.1881L30.648 28.0001ZM22.168 17.6801V17.6361L22.14 17.6801H22.168ZM22.14 17.6801H22.168V17.6361L22.14 17.6801ZM22.14 17.6801H22.168V17.6361L22.14 17.6801ZM22.14 17.6801H22.168V17.6361L22.14 17.6801ZM22.14 17.6801H22.168V17.6361L22.14 17.6801ZM22.14 17.6801H22.168V17.6361L22.14 17.6801ZM22.14 17.6801H22.168V17.6361L22.14 17.6801ZM22.14 17.6801H22.168V17.6361L22.14 17.6801ZM22.14 17.6801H22.168V17.6361L22.14 17.6801ZM22.14 17.6801H22.168V17.6361L22.14 17.6801ZM22.14 17.6801H22.168V17.6361L22.14 17.6801ZM22.14 17.6801H22.168V17.6361L22.14 17.6801ZM22.14 17.6801H22.168V17.6361L22.14 17.6801ZM22.14 17.6801H22.168V17.6361L22.14 17.6801ZM22.14 17.6801H22.168V17.6361L22.14 17.6801Z" fill="white"/>
</svg>
