<svg width="40" height="40" viewBox="0 0 40 40" fill="none" xmlns="http://www.w3.org/2000/svg">
<path d="M22.14 17.668H22.168V17.624L22.14 17.668ZM22.14 17.668H22.168V17.624L22.14 17.668ZM22.14 17.668H22.168V17.624L22.14 17.668ZM22.14 17.668H22.168V17.624L22.14 17.668ZM22.14 17.668H22.168V17.624L22.14 17.668ZM22.14 17.668H22.168V17.624L22.14 17.668ZM22.14 17.668H22.168V17.624L22.14 17.668ZM22.14 17.668H22.168V17.624L22.14 17.668ZM22.14 17.668H22.168V17.624L22.14 17.668ZM22.14 17.668H22.168V17.624L22.14 17.668ZM22.14 17.668H22.168V17.624L22.14 17.668ZM22.14 17.668H22.168V17.624L22.14 17.668ZM22.14 17.668H22.168V17.624L22.14 17.668ZM22.14 17.668H22.168V17.624L22.14 17.668ZM22.14 17.668H22.168V17.624L22.14 17.668ZM22.14 17.668H22.168V17.624L22.14 17.668ZM20.32 1.508C16.7069 1.508 13.175 2.57939 10.1709 4.58671C7.1667 6.59402 4.82524 9.44709 3.44258 12.7851C2.05992 16.1232 1.69815 19.7963 2.40302 23.3399C3.1079 26.8836 4.84776 30.1386 7.40258 32.6934C9.95741 35.2482 13.2125 36.9881 16.7561 37.693C20.2997 38.3979 23.9728 38.0361 27.3109 36.6534C30.6489 35.2708 33.502 32.9293 35.5093 29.9252C37.5166 26.921 38.588 23.3891 38.588 19.776C38.5827 14.9326 36.6564 10.2892 33.2316 6.86442C29.8068 3.43965 25.1634 1.51329 20.32 1.508ZM15.752 28C15.751 28.081 15.718 28.1583 15.6604 28.2152C15.6027 28.2721 15.525 28.304 15.444 28.304H11.924C11.8434 28.304 11.7661 28.272 11.709 28.215C11.652 28.1579 11.62 28.0806 11.62 28V16.172C11.6195 16.1317 11.627 16.0918 11.642 16.0544C11.657 16.0171 11.6793 15.9831 11.7076 15.9544C11.7359 15.9258 11.7696 15.903 11.8067 15.8875C11.8439 15.872 11.8837 15.864 11.924 15.864H15.444C15.4845 15.864 15.5245 15.872 15.5619 15.8874C15.5992 15.9029 15.6332 15.9256 15.6618 15.9542C15.6904 15.9828 15.7131 16.0168 15.7286 16.0541C15.744 16.0915 15.752 16.1315 15.752 16.172V28ZM13.56 14.284C13.1225 14.284 12.6948 14.1543 12.3311 13.9112C11.9673 13.6681 11.6838 13.3227 11.5164 12.9185C11.349 12.5143 11.3052 12.0695 11.3905 11.6405C11.4759 11.2114 11.6865 10.8172 11.9959 10.5079C12.3052 10.1985 12.6994 9.98785 13.1285 9.9025C13.5576 9.81715 14.0023 9.86095 14.4065 10.0284C14.8107 10.1958 15.1562 10.4793 15.3992 10.8431C15.6423 11.2068 15.772 11.6345 15.772 12.072C15.7725 12.3626 15.7157 12.6505 15.6047 12.9191C15.4937 13.1877 15.3308 13.4318 15.1253 13.6373C14.9198 13.8428 14.6757 14.0057 14.4071 14.1167C14.1385 14.2277 13.8506 14.2845 13.56 14.284ZM30.648 28C30.647 28.081 30.614 28.1583 30.5564 28.2152C30.4987 28.2721 30.421 28.304 30.34 28.304H26.82C26.7801 28.304 26.7406 28.2961 26.7037 28.2809C26.6668 28.2656 26.6333 28.2432 26.605 28.215C26.5768 28.1867 26.5544 28.1532 26.5392 28.1163C26.5239 28.0795 26.516 28.0399 26.516 28V21.644C26.516 19.972 25.92 18.844 24.424 18.844C23.9578 18.8466 23.5039 18.9933 23.1244 19.264C22.7448 19.5347 22.4583 19.9161 22.304 20.356C22.1986 20.6811 22.1525 21.0226 22.168 21.364V28C22.168 28.0817 22.1356 28.16 22.0778 28.2178C22.02 28.2755 21.9417 28.308 21.86 28.308H18.34C18.2997 28.308 18.2599 28.3 18.2227 28.2845C18.1856 28.269 18.1519 28.2462 18.1236 28.2175C18.0953 28.1889 18.073 28.1549 18.058 28.1176C18.043 28.0802 18.0355 28.0403 18.036 28C18.036 26.312 18.08 18.116 18.036 16.188C18.0355 16.1477 18.043 16.1078 18.058 16.0704C18.073 16.0331 18.0953 15.9991 18.1236 15.9704C18.1519 15.9418 18.1856 15.919 18.2227 15.9035C18.2599 15.888 18.2997 15.88 18.34 15.88H21.852C21.8926 15.8795 21.9329 15.8871 21.9705 15.9023C22.0081 15.9176 22.0423 15.9403 22.071 15.969C22.0997 15.9977 22.1224 16.0319 22.1377 16.0695C22.153 16.1071 22.1605 16.1474 22.16 16.188V17.64C22.5342 16.9905 23.0791 16.4559 23.7355 16.0941C24.392 15.7324 25.1351 15.5573 25.884 15.588C28.6 15.588 30.64 17.364 30.64 21.188L30.648 28ZM22.168 17.68V17.636L22.14 17.68H22.168ZM22.14 17.68H22.168V17.636L22.14 17.68ZM22.14 17.68H22.168V17.636L22.14 17.68ZM22.14 17.68H22.168V17.636L22.14 17.68ZM22.14 17.68H22.168V17.636L22.14 17.68ZM22.14 17.68H22.168V17.636L22.14 17.68ZM22.14 17.68H22.168V17.636L22.14 17.68ZM22.14 17.68H22.168V17.636L22.14 17.68ZM22.14 17.68H22.168V17.636L22.14 17.68ZM22.14 17.68H22.168V17.636L22.14 17.68ZM22.14 17.68H22.168V17.636L22.14 17.68ZM22.14 17.68H22.168V17.636L22.14 17.68ZM22.14 17.68H22.168V17.636L22.14 17.68ZM22.14 17.68H22.168V17.636L22.14 17.68ZM22.14 17.68H22.168V17.636L22.14 17.68Z" fill="#010046"/>
</svg>
