<svg width="40" height="40" viewBox="0 0 40 40" fill="none" xmlns="http://www.w3.org/2000/svg">
<g clip-path="url(#clip0_24_510)">
<path d="M23.206 19.666L18.7141 17.57C18.3221 17.3881 18 17.592 18 18.026V21.9741C18 22.4081 18.3221 22.612 18.7141 22.43L23.2041 20.334C23.598 20.15 23.598 19.85 23.206 19.666ZM20 0.800049C9.39605 0.800049 0.800049 9.39605 0.800049 20C0.800049 30.604 9.39605 39.2001 20 39.2001C30.604 39.2001 39.2001 30.604 39.2001 20C39.2001 9.39605 30.604 0.800049 20 0.800049ZM20 27.8C10.172 27.8 10 26.914 10 20C10 13.0861 10.172 12.2 20 12.2C29.828 12.2 30 13.0861 30 20C30 26.914 29.828 27.8 20 27.8Z" fill="white"/>
</g>
<defs>
<clipPath id="clip0_24_510">
<rect width="40" height="40" fill="white"/>
</clipPath>
</defs>
</svg>
